# xmcd
#
# Track frame offsets: 
#        150
#        13592
#        30765
#        49086
#        62263
#        79394
#        94090
#        108926
#        125211
#        141703
#        154819
#        171751
#        183715
#        201586
#        215565
#        229755
#        248039
#        264860
#        278696
#        294166
#
# Disc length: 4158 seconds
#
# Revision: 0
# Processed by: cddbd v1.5.2PL0 Copyright (c) Steve Scherf et al.
# Submitted via: ExactAudioCopyFreeDBPlugin 1.0
#
DISCID=1f103c14
DTITLE=Various Artist - Kings and Queens Of Country
DYEAR=2005
DGENRE=Country
TTITLE0=LeAnn Rimes - Nothin' 'Bout Love Makes Sense
TTITLE1=Tim McGraw and Faith Hill - It's Your Love (Pop mix)
TTITLE2=Martina McBride - This One's For The Girls
TTITLE3=Hal Ketchum - Stay Forever
TTITLE4=Sara Evans - Suds In The Bucket
TTITLE5=The Bellamy Brothers - Over The Line
TTITLE6=Jo Dee Messina - My Give A Damn's Busted
TTITLE7=Blue Country - That's Cool
TTITLE8=Gretchen Peters - Tomorrow Morning
TTITLE9=Hank III - If The Shoe Fits
TTITLE10=Chely Wright - Back Of The Bottom Drawer
TTITLE11=Dolly Parton - Jolene
TTITLE12=Jeff Carson - Butterfly Kisses
TTITLE13=Shelby Lynne - Restless
TTITLE14=Sawyer Brown - Mission Temple Fireworks Stand
TTITLE15=Wynonna Judd - Heaven Help Me
TTITLE16=Billy Dean - Let Them Be Little
TTITLE17=Amy Dalley - Men Don't Change
TTITLE18=Steve Holy - Don't Make Me Beg
TTITLE19=The Judds - Love Can Build A Bridge
EXTD=
EXTT0=
EXTT1=
EXTT2=
EXTT3=
EXTT4=
EXTT5=
EXTT6=
EXTT7=
EXTT8=
EXTT9=
EXTT10=
EXTT11=
EXTT12=
EXTT13=
EXTT14=
EXTT15=
EXTT16=
EXTT17=
EXTT18=
EXTT19=
PLAYORDER=
